<?xml version="1.0" standalone="no"?>
<!DOCTYPE svg PUBLIC "-//W3C//DTD SVG 20010904//EN"
 "http://www.w3.org/TR/2001/REC-SVG-20010904/DTD/svg10.dtd">
<svg version="1.0" xmlns="http://www.w3.org/2000/svg"
 width="260.000000pt" height="260.000000pt" viewBox="0 0 260.000000 260.000000"
 preserveAspectRatio="xMidYMid meet">
<metadata>
Created by potrace 1.11, written by Peter Selinger 2001-2013
</metadata>
<g transform="translate(0.000000,260.000000) scale(0.100000,-0.100000)"
fill="#000000" stroke="none">
<path d="M1287 2383 c-3 -5 -14 -24 -24 -43 -11 -19 -96 -168 -188 -330 -93
-162 -179 -313 -191 -335 -12 -22 -84 -148 -159 -280 -237 -414 -665 -1168
-665 -1171 0 -10 178 -2 255 11 189 33 342 113 552 287 225 188 307 231 438
231 135 0 202 -35 380 -198 48 -44 97 -86 109 -94 12 -8 23 -18 26 -21 14 -16
126 -83 185 -111 75 -34 200 -74 272 -85 26 -5 50 -9 53 -9 13 -3 121 -16 167
-19 l51 -4 -210 366 c-115 202 -213 372 -218 377 -4 6 -21 35 -37 65 -17 30
-81 143 -143 250 -62 107 -121 211 -132 230 -11 19 -90 157 -177 307 -86 150
-161 280 -166 290 -94 167 -167 293 -170 293 -2 0 -6 -3 -8 -7z"/>
</g>
</svg>
